<svg width="22" height="17" viewBox="0 0 22 17" fill="none" xmlns="http://www.w3.org/2000/svg">
<path d="M20.027 7.1285C20.501 7.7485 20.501 8.5855 20.027 9.2045C18.534 11.1535 14.952 15.1665 10.77 15.1665C6.58803 15.1665 3.00603 11.1535 1.51303 9.2045C1.28241 8.90764 1.15723 8.54242 1.15723 8.1665C1.15723 7.79059 1.28241 7.42537 1.51303 7.1285C3.00603 5.1795 6.58803 1.1665 10.77 1.1665C14.952 1.1665 18.534 5.1795 20.027 7.1285V7.1285Z" stroke="#94A3B8" stroke-width="2" stroke-linecap="round" stroke-linejoin="round"/>
<path d="M10.77 11.1665C12.4269 11.1665 13.77 9.82336 13.77 8.1665C13.77 6.50965 12.4269 5.1665 10.77 5.1665C9.11318 5.1665 7.77003 6.50965 7.77003 8.1665C7.77003 9.82336 9.11318 11.1665 10.77 11.1665Z" stroke="#94A3B8" stroke-width="2" stroke-linecap="round" stroke-linejoin="round"/>
</svg>
