<svg width="110" height="11" viewBox="0 0 110 11" fill="none" xmlns="http://www.w3.org/2000/svg">
<path d="M6.87894 8.15493H2.6012L1.64046 10.8197H0.251953L4.151 0.609278H5.32914L9.2352 10.8197H7.8537L6.87894 8.15493ZM3.00794 7.04692H6.47922L4.74007 2.27128L3.00794 7.04692Z" fill="black"/>
<path d="M25.0017 7.57989C24.8754 8.65984 24.4757 9.49435 23.8025 10.0834C23.134 10.6678 22.2434 10.96 21.1307 10.96C19.9245 10.96 18.9567 10.5275 18.2274 9.66265C17.5028 8.79775 17.1405 7.64066 17.1405 6.19137V5.2096C17.1405 4.26055 17.3088 3.42604 17.6454 2.70607C17.9867 1.9861 18.4682 1.43444 19.09 1.05108C19.7118 0.663042 20.4317 0.469025 21.2499 0.469025C22.3345 0.469025 23.2041 0.772908 23.8586 1.38067C24.5131 1.98376 24.8941 2.82061 25.0017 3.89121H23.6482C23.5313 3.07774 23.2766 2.48868 22.8838 2.12402C22.4958 1.75936 21.9512 1.57703 21.2499 1.57703C20.3897 1.57703 19.7141 1.89494 19.2232 2.53075C18.737 3.16657 18.4939 4.07121 18.4939 5.24466V6.23345C18.4939 7.34145 18.7253 8.22271 19.1882 8.87723C19.651 9.53175 20.2985 9.85901 21.1307 9.85901C21.8787 9.85901 22.4514 9.6907 22.8488 9.35409C23.2508 9.01281 23.5173 8.42141 23.6482 7.57989H25.0017Z" fill="black"/>
<path d="M40.6559 1.71728H37.374V10.8197H36.0346V1.71728H32.7597V0.609278H40.6559V1.71728Z" fill="black"/>
<path d="M50.5809 10.8197H49.2344V0.609278H50.5809V10.8197Z" fill="black"/>
<path d="M63.395 9.03151L66.3123 0.609278H67.7849L63.9981 10.8197H62.8059L59.0261 0.609278H60.4917L63.395 9.03151Z" fill="black"/>
<path d="M77.5696 10.8197H76.2232V0.609278H77.5696V10.8197Z" fill="black"/>
<path d="M93.848 1.71728H90.566V10.8197H89.2266V1.71728H85.9517V0.609278H93.848V1.71728Z" fill="black"/>
<path d="M105.554 5.73555L108.219 0.609278H109.748L106.227 7.01186V10.8197H104.881V7.01186L101.361 0.609278H102.903L105.554 5.73555Z" fill="black"/>
</svg>
