<svg width="66" height="43" viewBox="0 0 66 43" fill="none" xmlns="http://www.w3.org/2000/svg">
<g opacity="0.5">
<path d="M4.27691 5.43375H1.72355L1.15009 7.02437H0.321289L2.64862 0.929786H3.35184L5.68335 7.02437H4.85874L4.27691 5.43375ZM1.96633 4.77239H4.03832L3.00023 1.92183L1.96633 4.77239Z" fill="black"/>
<path d="M15.0943 5.09052C15.019 5.73514 14.7804 6.23325 14.3785 6.58486C13.9795 6.93368 13.4479 7.10809 12.7837 7.10809C12.0638 7.10809 11.4861 6.84996 11.0508 6.33371C10.6182 5.81746 10.402 5.12679 10.402 4.26172V3.6757C10.402 3.10922 10.5024 2.6111 10.7034 2.18135C10.9071 1.75161 11.1945 1.42232 11.5656 1.19349C11.9368 0.961878 12.3665 0.846069 12.8549 0.846069C13.5023 0.846069 14.0213 1.02746 14.412 1.39023C14.8027 1.75021 15.0301 2.24972 15.0943 2.88876H14.2864C14.2167 2.4032 14.0646 2.05159 13.8302 1.83393C13.5986 1.61626 13.2735 1.50743 12.8549 1.50743C12.3414 1.50743 11.9382 1.69719 11.6452 2.07671C11.3549 2.45622 11.2098 2.9962 11.2098 3.69663V4.28683C11.2098 4.9482 11.348 5.47422 11.6242 5.8649C11.9005 6.25557 12.287 6.45091 12.7837 6.45091C13.2302 6.45091 13.5721 6.35045 13.8092 6.14953C14.0492 5.94582 14.2083 5.59282 14.2864 5.09052H15.0943Z" fill="black"/>
<path d="M24.4383 1.59115H22.4793V7.02437H21.6798V1.59115H19.725V0.929786H24.4383V1.59115Z" fill="black"/>
<path d="M30.3624 7.02437H29.5587V0.929786H30.3624V7.02437Z" fill="black"/>
<path d="M38.0111 5.95698L39.7524 0.929786H40.6315L38.3711 7.02437H37.6595L35.4033 0.929786H36.2782L38.0111 5.95698Z" fill="black"/>
<path d="M46.4719 7.02437H45.6682V0.929786H46.4719V7.02437Z" fill="black"/>
<path d="M56.1884 1.59115H54.2294V7.02437H53.4299V1.59115H51.4751V0.929786H56.1884V1.59115Z" fill="black"/>
<path d="M63.1757 3.98964L64.7664 0.929786H65.6789L63.5776 4.75146V7.02437H62.7739V4.75146L60.6726 0.929786H61.5935L63.1757 3.98964Z" fill="black"/>
<path d="M37.6688 34.0673H28.3161L26.2156 39.8935H23.1798L31.7045 17.5698H34.2804L42.8204 39.8935H39.7999L37.6688 34.0673ZM29.2054 31.6448H36.7948L32.9925 21.2036L29.2054 31.6448Z" fill="black"/>
<path d="M32.9741 38.3834L40.1835 17.5698H43.8228L34.4645 42.8026H31.5183L22.1773 17.5698H25.7994L32.9741 38.3834Z" fill="black"/>
</g>
</svg>
